<svg xmlns="http://www.w3.org/2000/svg" version="1.1" xmlns:xlink="http://www.w3.org/1999/xlink" xmlns:svgjs="http://svgjs.dev/svgjs" width="2000" height="2250" viewBox="0 0 2000 2250"><g transform="matrix(1,0,0,1,0.00014687500004129106,0)"><svg viewBox="0 0 320 360" data-background-color="#ffffff" preserveAspectRatio="xMidYMid meet" height="2250" width="2000" xmlns="http://www.w3.org/2000/svg" xmlns:xlink="http://www.w3.org/1999/xlink"><g id="tight-bounds" transform="matrix(1,0,0,1,0.000023499999997511622,0)"><svg viewBox="0 0 320 360" height="360" width="320"><g><svg></svg></g><g><svg viewBox="0 0 320 360" height="360" width="320"><g><path transform="translate(-74.99272,-51.79039) scale(4.65793,4.65793)" d="M20.6 59.9l0.8 1-0.4-1.3c-0.1-0.6-0.8 0.1-0.4 0.3M21.5 59.3c0.3 0.5 0.6 1 0.6 1.5 0 0.7 0.6 1 1.1 1.2-0.7-0.8-1.1-3-1.7-2.7M59.9 16.9c1.7 0 3.3-0.2 5.1 0.2 4.4 1.1 8.1 3.3 10.6 6.4l7 11.2c0.3 2.8 0.9 5.9 0.8 9.3 0.7 0 0.6-1 1.4-1.2-0.8 2-1.2 4.5-1.4 7.4-0.5-1.6 0-4 0.1-5.3-0.7 1.1-1.1 0.3-1.1-0.2 0.1-0.8-0.3-0.7-0.6-1-1.1-1-1.8-2.1-2.6-3.8 0.5-1.3 0.6-3.2-1-4.2-0.5-0.3-1.1-0.8-1.4-1.6-0.4-1.1-1.1-2.4-0.9-4.1 0.1-0.5-1.5 1.1-2.4 0.4-3.9-2.7-7.8-5.8-12.5-8.4-2.5 0-4.3-0.9-5.2-2-0.8-1-0.2-2.3 1-2.4 0.7 0 1.5-0.2 2.1 0.2 0.1-0.4 0.5-0.9 1-0.9M50 14.6l0.2 0.1c1 0.2 1.5 1.6 2.6 1.1 0 0.7 0.1 1.4-0.1 1.9-0.3 0.8-1.2 0.8-1.9 0.8-6.7-0.4-10.6 2.4-14.7 4.8-1.1 0.7-2.3 1.2-3.2 2.1-4.3 4-9 7.7-10.1 15.1l-0.9 8.2c-0.1 0.9-1.1 1.8-0.9 2.9l0.7 4.9c-0.7-0.7-1.1 0.2-0.9 0.6 0.1 0.3 0.5 1.3 1.1 0.4 0.8 1.5 1.6 4.4 2.7 5.7 3.4 4 7.8 7.6 11.4 11.2 0.9-0.2 1.6-0.2 1.8-0.8 0.3 0.6-0.3 1.2-0.8 1.3 1.6 1 3.4 1.9 5.8 2.1 3.1 0.2 6 0.7 8.7 1.4 1.4-0.4 2.8-0.6 4.3-0.7 0.5 0 0.8-0.8 1.4-1l0.1-1c0.6 0.9 0.5-0.3 0.1-0.9 0.7 0.6 0.9 1.1 1.2 1.5 0-0.3 0.8-1.4 0.8-0.1l0.2-1.3c0.3-0.2 0.4 1.1 0.7 0.2 0.3-0.9 0.9-0.2 1.5-0.5-0.2 0.4-0.1 1.2 0.6 0.7l0.8-0.7c0.5 1.2 1.3 0.7 1.7 0.5 4.4-2.8 8.8-6.1 13-9.4l-0.1 1.3 0.5-1.6c0.5 0.5 0.9 0.1 1.1-0.2 0.6-1 1.4-2 2.7-2.9-1.6 4.3-3.5 7.7-5.9 10.5l-1 1.2c0 0.7-0.2 1.6-1 1.7-0.4 0.1-1.2-0.2-1.8 0.4-0.3 0.4 0.7 1.2-0.1 0.6-0.7-0.5-1.4 0-2.2 0.2-0.6 0.2 0.4 0.8 0.6 1.2 0.2 0.4 0.4 0.8 0.3 1.3l-1.1-1.2c-1.3 0.7-2.1 2-3.2 3-0.5 0.4-0.3 1.1-0.3 1.7-0.7 0-1.5-0.2-1.9 0.2-0.3 0.4-0.2 1-0.2 1.6-1-0.1-1.1-1.6-2-1.3-0.9 0.2-1.9 0.3-2.7 0.8 0.6 1.2-1 0.5-0.8 0.7-1.5-0.9-2.8-1.6-4.4-1-3.4-1.1-7.6-0.6-10.7-0.2 0-0.5 0.1-1-0.1-1.1-0.2 0.5-0.8 0.3-0.7 0.3-1.9-1.3-3.8-2.1-5.8-3.2-1.8 0.2-3.5-0.7-4-1.2-1.4-1.3-3-0.6-4.3-0.9-2.8-0.7-3.8-3.6-4.1-5.6-0.2-1-1-1.4-1.3-1.3-1.3-4.2-3.3-8-4.9-11.9-0.4-1-0.3-2-0.3-3.1 0.5 0.2 1 0.1 0.9-0.6-0.5-3.3-1.7-5.8-3-8.2 0.7-3.4 0.8-7.4 2.4-10.4 1.4-2.7 4-4.1 5.8-6.4 0.6-0.8 0.6-1.9 1.2-2.6 2-2 4-4.1 6.2-5.9 1-0.8 2.2 0 3.7-0.3 0.5-1.8 2.5-3.4 4.4-2.9 0.8 0.2 2.4-1.9 2.9-2.1 0.8-0.3 0.4 0.8 0.4 1.5 1.9-1.5 4.5-2.3 6.9-3.2" fill="#ed3b43" fill-rule="nonzero" stroke="none" stroke-width="1" stroke-linecap="butt" stroke-linejoin="miter" stroke-miterlimit="10" stroke-dasharray="" stroke-dashoffset="0" font-family="none" font-weight="none" font-size="none" text-anchor="none" style="mix-blend-mode: normal" data-fill-palette-color="tertiary"></path></g><g transform="matrix(1,0,0,1,64,158.99690535067327)"><svg viewBox="0 0 192 42.006189298653474" height="42.006189298653474" width="192"><g><svg viewBox="0 0 192 42.006189298653474" height="42.006189298653474" width="192"><g><svg viewBox="0 0 192 42.006189298653474" height="42.006189298653474" width="192"><g transform="matrix(1,0,0,1,0,25.38931739164461)"><svg viewBox="0 0 192 16.616871907008864" height="16.616871907008864" width="192"><g id="textblocktransform"><svg viewBox="0 0 192 16.616871907008864" height="16.616871907008864" width="192" id="textblock"><g><svg viewBox="0 0 192 16.616871907008864" height="16.616871907008864" width="192"><g transform="matrix(1,0,0,1,0,0)"><svg width="192" viewBox="5.7 -37.35 434.42 37.6" height="16.616871907008864" data-palette-color="#ed3b43"><path d="M39-35L42.05-35 42.05 0 38.5 0 38.5-28 24.75-4.45 23-4.45 9.25-27.85 9.25 0 5.7 0 5.7-35 8.75-35 23.95-9.05 39-35ZM72.85-26.3L76.4-26.3 76.4 0 73 0 73-4.8Q71.6-2.4 69.15-1.07 66.7 0.25 63.55 0.25L63.55 0.25Q58.4 0.25 55.42-2.63 52.45-5.5 52.45-11.05L52.45-11.05 52.45-26.3 56-26.3 56-11.4Q56-7.25 58.05-5.1 60.1-2.95 63.9-2.95L63.9-2.95Q68.05-2.95 70.45-5.48 72.85-8 72.85-12.5L72.85-12.5 72.85-26.3ZM99.75-26.5Q104.7-26.5 107.62-23.63 110.55-20.75 110.55-15.25L110.55-15.25 110.55 0 107 0 107-14.9Q107-19 104.95-21.15 102.9-23.3 99.1-23.3L99.1-23.3Q94.85-23.3 92.37-20.78 89.9-18.25 89.9-13.8L89.9-13.8 89.9 0 86.35 0 86.35-37.1 89.9-37.1 89.9-21.7Q91.35-24 93.9-25.25 96.45-26.5 99.75-26.5L99.75-26.5ZM129.39-26.5Q134.54-26.5 137.29-23.93 140.04-21.35 140.04-16.3L140.04-16.3 140.04 0 136.64 0 136.64-4.1Q135.44-2.05 133.12-0.9 130.79 0.25 127.59 0.25L127.59 0.25Q123.19 0.25 120.59-1.85 117.99-3.95 117.99-7.4L117.99-7.4Q117.99-10.75 120.42-12.8 122.84-14.85 128.14-14.85L128.14-14.85 136.49-14.85 136.49-16.45Q136.49-19.85 134.59-21.63 132.69-23.4 129.04-23.4L129.04-23.4Q126.54-23.4 124.24-22.58 121.94-21.75 120.29-20.3L120.29-20.3 118.69-22.95Q120.69-24.65 123.49-25.58 126.29-26.5 129.39-26.5L129.39-26.5ZM128.14-2.55Q131.14-2.55 133.29-3.93 135.44-5.3 136.49-7.9L136.49-7.9 136.49-12.2 128.24-12.2Q121.49-12.2 121.49-7.5L121.49-7.5Q121.49-5.2 123.24-3.88 124.99-2.55 128.14-2.55L128.14-2.55ZM182.49-26.5Q187.44-26.5 190.27-23.65 193.09-20.8 193.09-15.25L193.09-15.25 193.09 0 189.54 0 189.54-14.9Q189.54-19 187.56-21.15 185.59-23.3 181.99-23.3L181.99-23.3Q177.89-23.3 175.54-20.78 173.19-18.25 173.19-13.8L173.19-13.8 173.19 0 169.64 0 169.64-14.9Q169.64-19 167.67-21.15 165.69-23.3 162.04-23.3L162.04-23.3Q157.99-23.3 155.62-20.78 153.24-18.25 153.24-13.8L153.24-13.8 153.24 0 149.69 0 149.69-26.3 153.09-26.3 153.09-21.5Q154.49-23.9 156.99-25.2 159.49-26.5 162.74-26.5L162.74-26.5Q166.04-26.5 168.47-25.1 170.89-23.7 172.09-20.95L172.09-20.95Q173.54-23.55 176.27-25.03 178.99-26.5 182.49-26.5L182.49-26.5ZM211.94-26.5Q217.09-26.5 219.84-23.93 222.59-21.35 222.59-16.3L222.59-16.3 222.59 0 219.19 0 219.19-4.1Q217.99-2.05 215.66-0.9 213.34 0.25 210.14 0.25L210.14 0.25Q205.74 0.25 203.14-1.85 200.54-3.95 200.54-7.4L200.54-7.4Q200.54-10.75 202.96-12.8 205.39-14.85 210.69-14.85L210.69-14.85 219.04-14.85 219.04-16.45Q219.04-19.85 217.14-21.63 215.24-23.4 211.59-23.4L211.59-23.4Q209.09-23.4 206.79-22.58 204.49-21.75 202.84-20.3L202.84-20.3 201.24-22.95Q203.24-24.65 206.04-25.58 208.84-26.5 211.94-26.5L211.94-26.5ZM210.69-2.55Q213.69-2.55 215.84-3.93 217.99-5.3 219.04-7.9L219.04-7.9 219.04-12.2 210.79-12.2Q204.04-12.2 204.04-7.5L204.04-7.5Q204.04-5.2 205.79-3.88 207.54-2.55 210.69-2.55L210.69-2.55ZM252.79-37.1L256.34-37.1 256.34 0 252.94 0 252.94-5.2Q251.34-2.55 248.71-1.15 246.09 0.25 242.79 0.25L242.79 0.25Q239.09 0.25 236.09-1.45 233.09-3.15 231.39-6.2 229.69-9.25 229.69-13.15L229.69-13.15Q229.69-17.05 231.39-20.1 233.09-23.15 236.09-24.83 239.09-26.5 242.79-26.5L242.79-26.5Q245.99-26.5 248.56-25.18 251.14-23.85 252.79-21.3L252.79-21.3 252.79-37.1ZM243.09-2.9Q245.84-2.9 248.06-4.17 250.29-5.45 251.56-7.8 252.84-10.15 252.84-13.15L252.84-13.15Q252.84-16.15 251.56-18.5 250.29-20.85 248.06-22.13 245.84-23.4 243.09-23.4L243.09-23.4Q240.29-23.4 238.06-22.13 235.84-20.85 234.56-18.5 233.29-16.15 233.29-13.15L233.29-13.15Q233.29-10.15 234.56-7.8 235.84-5.45 238.06-4.17 240.29-2.9 243.09-2.9L243.09-2.9ZM306.23 0L302.03-9.35 282.53-9.35 278.33 0 274.48 0 290.48-35 294.13-35 310.13 0 306.23 0ZM283.88-12.35L300.68-12.35 292.28-31.15 283.88-12.35ZM323.88-34.35Q321.58-34.35 320.4-33.1 319.23-31.85 319.23-29.4L319.23-29.4 319.23-26.3 327.33-26.3 327.33-23.3 319.33-23.3 319.33 0 315.78 0 315.78-23.3 311.08-23.3 311.08-26.3 315.78-26.3 315.78-29.55Q315.78-33.15 317.85-35.25 319.93-37.35 323.73-37.35L323.73-37.35Q325.23-37.35 326.63-36.93 328.03-36.5 328.98-35.7L328.98-35.7 327.78-33.05Q326.23-34.35 323.88-34.35L323.88-34.35ZM339.53-21.15Q340.78-23.8 343.25-25.15 345.73-26.5 349.38-26.5L349.38-26.5 349.38-23.05 348.53-23.1Q344.38-23.1 342.03-20.55 339.68-18 339.68-13.4L339.68-13.4 339.68 0 336.13 0 336.13-26.3 339.53-26.3 339.53-21.15ZM378.47-13.15L378.42-12.05 356.42-12.05Q356.72-7.95 359.57-5.43 362.42-2.9 366.77-2.9L366.77-2.9Q369.22-2.9 371.27-3.78 373.32-4.65 374.82-6.35L374.82-6.35 376.82-4.05Q375.07-1.95 372.45-0.85 369.82 0.25 366.67 0.25L366.67 0.25Q362.62 0.25 359.5-1.48 356.37-3.2 354.62-6.25 352.87-9.3 352.87-13.15L352.87-13.15Q352.87-17 354.55-20.05 356.22-23.1 359.15-24.8 362.07-26.5 365.72-26.5L365.72-26.5Q369.37-26.5 372.27-24.8 375.17-23.1 376.82-20.08 378.47-17.05 378.47-13.15L378.47-13.15ZM365.72-23.45Q361.92-23.45 359.35-21.03 356.77-18.6 356.42-14.7L356.42-14.7 375.07-14.7Q374.72-18.6 372.15-21.03 369.57-23.45 365.72-23.45L365.72-23.45ZM408.67-13.15L408.62-12.05 386.62-12.05Q386.92-7.95 389.77-5.43 392.62-2.9 396.97-2.9L396.97-2.9Q399.42-2.9 401.47-3.78 403.52-4.65 405.02-6.35L405.02-6.35 407.02-4.05Q405.27-1.95 402.65-0.85 400.02 0.25 396.87 0.25L396.87 0.25Q392.82 0.25 389.7-1.48 386.57-3.2 384.82-6.25 383.07-9.3 383.07-13.15L383.07-13.15Q383.07-17 384.75-20.05 386.42-23.1 389.35-24.8 392.27-26.5 395.92-26.5L395.92-26.5Q399.57-26.5 402.47-24.8 405.37-23.1 407.02-20.08 408.67-17.05 408.67-13.15L408.67-13.15ZM395.92-23.45Q392.12-23.45 389.55-21.03 386.97-18.6 386.62-14.7L386.62-14.7 405.27-14.7Q404.92-18.6 402.35-21.03 399.77-23.45 395.92-23.45L395.92-23.45ZM429.32-26.5Q434.27-26.5 437.19-23.63 440.12-20.75 440.12-15.25L440.12-15.25 440.12 0 436.57 0 436.57-14.9Q436.57-19 434.52-21.15 432.47-23.3 428.67-23.3L428.67-23.3Q424.42-23.3 421.94-20.78 419.47-18.25 419.47-13.8L419.47-13.8 419.47 0 415.92 0 415.92-26.3 419.32-26.3 419.32-21.45Q420.77-23.85 423.34-25.18 425.92-26.5 429.32-26.5L429.32-26.5Z" opacity="1" transform="matrix(1,0,0,1,0,0)" fill="#ed3b43" class="wordmark-text-0" data-fill-palette-color="primary" id="text-0"></path></svg></g></svg></g></svg></g></svg></g><g transform="matrix(1,0,0,1,84.50679577636227,0)"><svg viewBox="0 0 22.986408447275476 22.964516975486248" height="22.964516975486248" width="22.986408447275476"><g><svg xmlns="http://www.w3.org/2000/svg" xmlns:xlink="http://www.w3.org/1999/xlink" xml:space="preserve" style="shape-rendering:geometricPrecision;text-rendering:geometricPrecision;image-rendering:optimizeQuality;" viewBox="1.5694310833295606 1.5722274181739693 5.32771420215196 5.322640268769762" x="0" y="0" fill-rule="evenodd" clip-rule="evenodd" height="22.964516975486248" width="22.986408447275476" class="icon-icon-0" data-fill-palette-color="accent" id="icon-0"><g fill="#fee717" data-fill-palette-color="accent"><path class="" d="M2.913 2.541c0.091-0.128 0.487-0.297 0.632-0.353 1.586-0.61 3.303 1.069 2.741 2.726-0.042 0.125-0.249 0.584-0.359 0.641l-0.538-0.532-0.001 0.02-0.343 0.342-0.02 0.001 0.526 0.544c-0.052 0.106-0.496 0.309-0.621 0.351-1.62 0.552-3.273-1.02-2.743-2.726 0.037-0.119 0.252-0.595 0.359-0.642l0.538 0.533 0.002-0.02 0.342-0.343 0.02-0.001-0.535-0.541z m1.159 0.621l0.289 0.009 0.017 0.204 0.342 0.192-0.209 0.232c-0.163-0.103-0.379-0.176-0.476-0.005-0.093 0.349 0.75 0.362 0.75 0.945 0 0.215-0.218 0.38-0.407 0.414l-0.009 0.199-0.283 0.006-0.016-0.226c-0.094-0.054-0.272-0.126-0.388-0.265l0.239-0.172c0.138 0.039 0.185 0.131 0.346 0.131 0.258 0 0.247-0.274 0.034-0.359-0.285-0.11-0.679-0.298-0.588-0.757 0.121-0.294 0.216-0.247 0.354-0.337l0.005-0.211z m-2.494 1.3c0.123 1.463 1.421 2.542 2.88 2.424 1.47-0.12 2.55-1.404 2.43-2.873-0.123-1.509-1.393-2.508-2.879-2.437-1.45 0.069-2.549 1.484-2.431 2.886z" fill="#fee717" data-fill-palette-color="accent"></path></g></svg></g></svg></g><g></g></svg></g></svg></g></svg></g></svg></g><defs></defs></svg><rect width="320" height="360" fill="none" stroke="none" visibility="hidden"></rect></g></svg></g></svg>